<?xml version="1.0" encoding="utf-8"?>
<!-- Generator: Adobe Illustrator 21.0.0, SVG Export Plug-In . SVG Version: 6.00 Build 0)  -->
<svg version="1.1" id="Layer_1" xmlns="http://www.w3.org/2000/svg" xmlns:xlink="http://www.w3.org/1999/xlink" x="0px" y="0px"
	 viewBox="0 0 554 307" style="enable-background:new 0 0 554 307;" xml:space="preserve">
<path d="M142.6,225.8c-2.8-9.5-10.5-15.9-19.2-20.1c1.4-3.8,2.5-7.7,3.1-11.7c2.3-14.4-2.1-26.5-13.9-35.3
	c-15.9-11.8-38.7-14.1-57.1-6.6c0.5-1.6-0.5-3.8-2.7-4c-24.5-2.5-38.9,17.9-46,38.7c-1.7,1.1-3.4,2.3-5,3.4
	c-3.5,2.5-2.9,8.5,1.5,9.2c-2.7,12.5-3.8,26.6,4,37.6c4.1,5.8,9.9,9.7,16.4,12.2c-7.9,19.6-11.9,46,8.9,55.9
	c11.3,5.4,26.7,0.6,37.8-3.1c11.4-3.8,22.4-9.1,32.4-15.8c10.4-7,19.9-15.5,27.8-25.3C138.6,251.2,146.4,238.8,142.6,225.8z
	 M96.2,164.2c9.3,3.7,18.4,10.8,18.7,21.5c0.2,5.3-0.8,10.6-2.6,15.6c-6.1-1.8-12.8-3.1-19.6-3.6c1.6-2.2,2.9-4.6,3.3-7.3
	c0.6-4.1-3.3-8.3-7.5-5.8c-0.8,0.5-1.6,1-2.4,1.4c0,0,0.1-0.1,0.1-0.1c4.3-4.1-1.2-11-6.3-8.2c-7.7,4.3-15.3,8.6-23,12.9
	c2.3-1.8,4.6-3.5,6.9-5.3c5.2-3.8,0.4-12.4-4.9-9c3.1-3.7,0.1-8.6-3.9-8.9c-0.3-0.1-0.6-0.2-0.9-0.2C67,160.6,82.1,158.7,96.2,164.2
	z M106.2,213.4c-0.1,0.1-0.2,0.2-0.2,0.4c-11.2,16.6-30.3,25.5-49.8,27.5c5.9-3.3,11.8-6.6,17.7-9.8c1.6,2,4.5,3.1,7.2,1.8
	c9.2-4.4,18.7-11.7,25-19.9C106.1,213.4,106.2,213.4,106.2,213.4z M75.6,217.6c0.7-0.8,1.4-1.6,2.1-2.4c1.1-1.2,2.2-2.5,3.2-3.7
	c2.3-0.1,4.7-0.2,7-0.3C83.9,213.4,79.7,215.5,75.6,217.6z M57.9,220.2c-4.1,4.5-8.2,9-12.3,13.4c-2.3,2.5-2,5.8-0.3,7.9
	c-1.6,0-3.2-0.1-4.8-0.3C45,233.3,50.8,226.3,57.9,220.2z M51.5,154c-5,2.5-9.5,5.8-13.4,10c-1.8,1.9-1.8,4.6-0.8,6.8
	c-2.5,1.1-5,2.3-7.1,3.3c-3.5,1.6-7,3.3-10.4,5.1C25.9,165.4,36,154.1,51.5,154z M28.5,238.8c-2.1-0.8-4.2-1.7-6.2-2.9
	c-9.6-5.9-11.2-16.8-10.1-27.1c0.3-3.4,0.9-7.1,1.7-10.8c5.1-1.5,9.9-3.9,14.7-6.2c-0.6,0.6-1.1,1.1-1.7,1.7c-2.7,2.8-2,6.2,0.1,8.1
	c-3.9,3.8-7.6,7.9-10.9,12.4c-3.5,4.8,3.2,10.7,7.9,7.9c8-4.8,16-9.5,24.1-14.1c-1.2,2-0.7,4.3,0.6,5.9c-7.7,6.3-14,14.2-18.9,22.9
	C29.3,237.3,28.9,238,28.5,238.8z M122.4,250.4c-6,7.8-13.2,14.9-21,20.8c-15.2,11.6-33.6,19.9-52.6,22.7
	c-24.8,3.7-19.6-25.1-13.4-41.7c0.6,0.1,1.3,0.2,1.9,0.3c26.6,3.4,56.2-5.3,73.8-26.2c2.4-2.8,4.6-5.8,6.5-9c3.7,1.8,7,4.1,9.6,7.2
	C134.1,232.8,127.9,243.2,122.4,250.4z"/>
<path d="M81.6,257.6c-1-3-4.8-2.8-5.9,0c-1.3,3.3-1.6,6.4-2.9,9.3c-0.2-0.2-0.3-0.4-0.5-0.6c-1.4-2-2.6-4.1-3.2-6.6
	c-0.8-3.1-5.5-2.4-5.5,0.7c0,4,1.3,9,4.1,12.5c-3.8,2.8-8.8,4.3-13.4,3.6c-2.1-0.3-3.1,2.7-0.9,3.3c6.9,1.8,14,1.4,19.8-3
	c0,0,0.1,0,0.1,0c2.6,0.7,5.3-2,4.3-4.5C80.8,268,83.1,262.3,81.6,257.6z"/>
<path d="M71.6,74.5C61.4,85.3,50.3,95,39.5,105.1c-5.5,5.1-11,10.3-16.3,15.6c-4.1,4.1-11.8,9.2-12.1,15.4c-0.1,1.4,1.2,2.4,2.5,2.5
	c6,0.4,12.4-7.2,16.7-10.7c6.1-5,12.1-10.1,18-15.2c5.9-5.2,11.8-10.3,17.8-15.5c5-4.4,12.2-9,15-15.3C83.9,76,76.7,69.1,71.6,74.5z
	"/>
<path d="M135.1,16.3c-4-12.1-19-17.5-30.7-15.8C93.9,2,81.4,11.6,80.9,23.1c-0.1,2.3,2.9,2.7,4,1.1C88.7,18.9,91.4,14,97.5,11
	c5.9-2.8,12.9-3.3,19-1c7.2,2.7,12.2,8.6,9.3,16.4c-2.5,6.7-7.3,13-11.3,18.9c-7.4,11-17.1,23.1-20,36.3c-1.3,5.7-0.6,11.4,3.6,15.6
	c3.9,4,9,4.8,13.4,1.3c2.1-1.6,0.6-4.7-1.4-5.4c-8.1-2.8-5-11.1-2.3-17c3.2-7,7.3-13.5,11.4-20c4.1-6.5,8.4-12.9,12.1-19.6
	C134.5,30.4,137.4,23.3,135.1,16.3z"/>
<path d="M110.2,126.8c-0.9-3.4-5-6.2-8.2-7.1c-3.9-1.2-8.6,0.9-10.1,4.8c-0.6,1.7-0.6,3.5,0,5.1c-2.4,3.5,0.5,9.1,4.8,9.9
	C102.8,140.7,112,133.4,110.2,126.8z"/>
<path d="M449.7,48.8c-4-2.3-8.6-3.5-12.9-5.2c-4.1-1.7-8.1-3.5-12-5.5c-8.1-4.1-15.6-8.9-23.3-13.7c-2.7-1.7-6.9-0.2-7.6,3.1
	c-2.7,13.1-19.7,22.4-18.4,36.5c0.2,1.7,2.5,3.2,3.8,1.6c4.5-5.6,8.3-11.7,13-17.1c3-3.5,5.6-6.9,7.9-10.7c-0.1,0.7,0,1.5,0.1,2.4
	c2.6,13,3.8,26.2,4.4,39.4c0.3,6.5,0.4,12.9,0.6,19.4c0.1,6.2-0.5,13.5,1.6,19.4c1.9,5.4,9.4,5.6,11.2,0c2-6.2,1.1-13.9,1.1-20.4
	c-0.1-6.8-0.2-13.6-0.4-20.4c-0.4-10.2-1.2-20.5-2.6-30.6c0.9,0.5,1.8,1,2.7,1.6c7.8,4.4,17.1,10.3,26,12
	C451.6,61.8,456.3,52.5,449.7,48.8z"/>
<path d="M434.3,190.3c-0.2-2.7-2.3-5.8-5.5-5.5c-5.1,0.6-9.1,6.2-12.3,9.6c-1,1.1-2.1,2.2-3.1,3.3c0.4-6.6,0.6-13.2,0.6-19.8
	c0.1-12.1,0.6-25.2-1.9-37.1c-0.6-2.8-5.1-2.8-5.7,0c-2.6,11.7-2.9,24.3-4.4,36.2c-1.6,12.4-3.5,24.7-5.5,37.1
	c-0.1,0.6-0.1,1.2-0.1,1.7c-0.2,0.2-0.4,0.4-0.6,0.7c-2.3-1.9-4.3-4.2-6.3-6.4c-5-5.5-9.5-11.2-12.9-17.8c-1.6-3.1-6.1-0.4-4.7,2.7
	c3.7,8.1,7.3,16.2,12.2,23.6c3.8,5.7,8.6,14.3,16.7,10.1c2.3-1.2,4.4-3.4,6.3-5.5c1.8-0.7,3.4-2.2,4.3-4.5c2.6-2.6,5.1-5.2,7.7-7.8
	c3.2-3.2,6.4-6.4,9.5-9.7C431.6,198,434.7,194.9,434.3,190.3z"/>
<path d="M351,178.3c-3.6-4.9-9.7-4.1-15.2-4.1c-6.1,0-12.3,0-18.4,0.1c-6.1,0.1-12.3,0-18.4-0.1c-2.7,0-5.4-0.2-8.2-0.3
	c1-0.6,1.9-1.3,2.9-1.9c7-4.8,14.5-9.3,21.1-14.6c1.1-0.9,0.5-2.9-0.8-3.2c-4.8-1.1-9.4,1.7-13.7,3.7c-5.9,2.9-11.8,5.8-17.7,8.7
	c-5.6,2.8-11.1,5.7-16.8,8.4c-4.8,2.3-8.6,6.5-7.2,12.3c1.3,5,5.7,8.7,9.4,12.1c4.4,4.1,9.2,7.8,14.1,11.3c7.8,5.5,22,14.8,30.5,6
	c2.2-2.3,1.5-5.5-0.9-7.2c-3.2-2.3-6.6-2.6-10.2-4.2c-3.7-1.6-7.2-3.8-10.6-6c-3.5-2.3-6.9-4.8-10.1-7.6c-1.8-1.6-3.6-3.2-5.4-4.8
	c-0.5-0.5-1-1-1.5-1.5c0.2-0.2,0.4-0.3,0.7-0.5c0.8,2.1,2.5,3.8,4.9,4.4c6.3,1.5,13.1,0.8,19.5,0.6c6.2-0.1,12.3-0.3,18.4-0.6
	c6.2-0.3,12.3-0.7,18.4-1.4c5.2-0.6,12.4-0.3,15.2-5.5C351.6,181.3,351.9,179.5,351,178.3z"/>
<path d="M553.3,173.9c-2.2-4.5-6.2-8.7-9.1-12.8c-2.8-4-5.9-7.9-9-11.7c-2.7-3.5-8.2,1-6,4.7c3.9,6.6,8.1,12.9,12.4,19.3
	c-10.5,0.2-21.1,0.2-31.6-0.4c-11-0.7-22-2.3-33-3c-6.7-0.4-7.7,9.6-1.5,11.4c19.6,5.7,41.6,7.3,62.2,7.1c-0.8,0.9-1.6,1.9-2.4,2.8
	c-4.8,5.5-10,10.5-15.7,15c-3,2.4-6.1,4.7-9.3,6.8c-2.8,1.9-5.3,3.1-6.3,6.5c-0.6,2,1,3.4,2.8,3.7c4,0.5,7.3-2.8,10.3-5.1
	c3.4-2.6,6.7-5.2,9.8-8c6.4-5.7,12.7-11.8,18.3-18.2C549.8,186.9,556.7,181,553.3,173.9z"/>
</svg>
