<?xml version="1.0" encoding="utf-8"?>
<!-- Generator: Adobe Illustrator 21.0.0, SVG Export Plug-In . SVG Version: 6.00 Build 0)  -->
<svg version="1.1" id="Layer_1" xmlns="http://www.w3.org/2000/svg" xmlns:xlink="http://www.w3.org/1999/xlink" x="0px" y="0px"
	 viewBox="0 0 644 220" style="enable-background:new 0 0 644 220;" xml:space="preserve">
<path d="M117.3,125c-0.2-1.1-1.2-1.9-2.2-2.2c-3.8-1.1-6.7,1.5-9.7,3.5c-3.3,2.3-7.1,4.7-11.2,5.2c-8.5,1-10.7-6.3-10.7-13.2
	c1.6,0.9,3.5,1.5,5.4,1.5c7.3,0.1,12.1-6.3,14.5-12.5c2.7-7.1,3.1-16.5-4.3-21c-5-3-10.3-1.7-14.5,1.4c-0.6-3.4-2-5.8-5.3-7.9
	c-3.8-2.4-8.9-4-13.3-5.1c-4.4-1.1-9-1.1-12.8,1.6c-4.3,3-5.7,8.3-6.9,13.1c-2.7,10.6-4,21.7-3.7,32.7c0.2,8.3-0.2,23.3,10.3,25.5
	c4.4,0.9,8.3-2.7,7.2-7.2c-2-8.7-1.4-18.8-1.8-27.7c-0.3-5.6-0.5-11.3-0.7-16.9c0.4-2.6,0.8-6.3,2.1-7.9c1.3-1.7,0.1-1.3,2.3-1.2
	c1.2,0,3.1,0.8,4.2,1.1c2.9,0.9,5.7,1.9,8.5,3.1c2.1,0.9,3.7,1,5.7,1.1c-0.3,0.4-0.7,0.9-1,1.3c-8.3,12.2-13.2,36.2,0.6,46.5
	c6.6,4.9,15.6,4.7,22.8,1.5C108.6,138.7,118.7,132.1,117.3,125z M94.9,96.5c2.4,2.7-0.8,9.9-2.4,12.4c-1.6,2.4-5.5,4.8-8.1,3.4
	C86.2,105.5,90.9,92,94.9,96.5z"/>
<path d="M136.2,80.8c3,1,4.4-3.3,2.1-4.9c-5-3.4-10.4-0.7-13.8,3.6c-3.9,5-4.1,11.2-3,17.3c1.3,7.4,5.6,13.9,6.7,21.3
	c1.1,7.9-3.5,12.2-8.9,17c-3.6,3.2,0.2,9.5,4.7,8.1c11.2-3.6,15.9-17,13.8-27.7c-1.3-6.7-4.9-12.6-6.6-19.1
	c-0.7-2.7-0.9-5.3-0.6-8.1C130.8,85.9,132.4,79.6,136.2,80.8z"/>
<path d="M162,116.4c-1.2-5.6-4.7-10.5-7.7-15.2c-1.5-2.4-3-4.9-3.8-7.7c-0.3-1.2-0.1-5.8-0.4-7.8c1.8,0.8,4.4-0.1,4.4-2.7
	c0.1-5.8-6.1-6.9-9.9-3.4c-5.2,4.7-5,12.5-2.8,18.6c2.4,6.9,8,12.4,9.8,19.5c2.1,7.7-5.2,12.9-10.3,17.4c-5.1,4.6,1.4,11.8,7,9
	c4.4-2.2,8.3-7.4,10.9-11.5C162.1,127.7,163.2,122.1,162,116.4z"/>
<path d="M258.8,136.7c0-0.2,0-0.4,0-0.7c-0.1-1.1-0.3-2.2-0.4-3.3c-0.3-1.9-0.5-3.9-0.8-5.8l-1.7-12.6c-1.2-8.9-2.4-17.8-3.5-26.8
	c-0.8-6.4-10.4-6.9-10.4,0c-0.1,11,0.2,22.5-3.6,33.1c-2.2,6.3-11.2,17.9-18.7,10.5c-3.4-3.4-1.6-9.8-0.7-13.8
	c1.3-5.5,2.9-10.9,5.2-16c4.1-9.1,12.6-19.2,23.2-20.4c3.6-0.4,3.8-5.8,0-5.7c-15.1,0.2-26.1,9.4-32.6,22.6
	c-5.3,10.9-12.8,30.6-2.7,40.9c9.4,9.6,24.5,4.6,31.5-5.2c1.4-2,2.6-4.1,3.6-6.4c0.4,3.2,0.7,6.4,1.3,9.6c0.6,3.6,2.4,6.5,6.4,6.5
	c2.5,0,3.9-1.9,4.2-4.2l0-0.3C259.3,137.9,259.1,137.2,258.8,136.7z"/>
<path d="M294.7,97.2c-1.9-9.2-5.7-19.3-13.9-24.6c-3.8-2.5-8.8-3.4-12.8-0.7c-3.7,2.6-5.6,7.7-7.1,11.9c-4.1,11.2-3.8,22.7-4.2,34.4
	c-0.1,2.6,3.7,2.5,4,0c1-8.6,2.6-17.8,5.4-26c1.1-3.4,2.6-8.8,5.3-11.2c1.9-1.7,2.8-1.5,4.8-0.1c1.6,1.1,2.9,2.8,3.9,4.4
	c9.5,14.3,5.1,33,8.5,48.9c1.2,5.7,9.7,3.1,9-1.7C298.9,121,297,108.2,294.7,97.2z"/>
<path d="M404.8,68.3c-1.6-4.4-7.3-3.4-7.8,1.1c-1.3,12.2-14.9,22.4-23.7,29.6c-9.8,8-20.7,14.8-31.7,21.1c-0.5,0.3-1,0.5-1.5,0.8
	c3.1-14.8,5.5-30.1,1.2-45c-1-3.3-6.5-4.8-8.1-1.1c-3.1,7.2-6.2,14.5-9.4,21.7c-2.4,5.5-6.4,12.7-13.3,8.6c-2.7-1.6-3.3-3.8-4.1-6.7
	c-0.5-1.6-1.1-3.4-2.7-4.1c-2.8-1.3-5.2,1.3-4.7,4c0.1,0.6,0.7,1,1.2,1.2c0.2,0.1,0.4,0.1,0.6,0.2c0,0,0.1,0,0.1,0
	c-0.1,1.1-0.2,2.1-0.1,2.2c0.1,1.1,0.4,2.1,0.9,3.2c1,2.3,2.5,4.3,4.5,5.8c3.8,2.9,9,3.9,13.6,2.3c5.4-1.9,8.6-7,11-11.9
	c1.3-2.6,2.5-5.2,3.7-7.8c-0.2,7.9-1.9,15.8-3.8,23.5c-0.9,3.6-1.9,7.2-2.9,10.8c-6.5,3.5-13.1,7-19.5,10.6
	c-10.2,5.6-20.5,11.5-28.7,19.8c-8.6,8.8-12.9,20.1-12.5,32.4c0.4,10.2,1.9,27.8,14.9,29.1c12.5,1.2,19.7-11.8,25.5-20.7
	c7.2-11.1,13.5-22.9,18.8-35.1c4.3-9.8,7.9-19.9,10.8-30.1c7.4-3.8,14.7-7.8,21.8-12.1c10.6-6.5,21-13.6,30-22.1
	C396.9,91.9,409.3,80.7,404.8,68.3z M320,150.1c-4.5,11.4-10,22.4-16.2,32.9c-3,5-6.1,9.8-9.4,14.6c-2.2,3.2-6.2,10.6-10.8,10.6
	c-4.1,0-4.8-8.6-5.4-11.7c-1.4-6.5-1.7-13.5,0.4-20c3.4-10.2,12.3-17.1,21.2-22.5c7.7-4.7,15.7-9,23.7-13.1
	C322.3,143.9,321.2,147,320,150.1z"/>
<path d="M538.1,79c-4.2-4.2-10.7-3.9-15.2-0.4c-5.2,4-7.2,11.5-9.3,17.5c-1.2,3.4-2.2,7-3,10.6c-0.5-0.7-1.2-1.2-2-1.5
	c-5.7-1.6-12.1-0.7-18-1.1c-3-0.2-5.9-0.5-8.9-1c-0.4-0.1-2.4-0.1-3.4-0.4c0.4-0.4,0.7-1.6,0.8-1.9c3.6-9.4,11.8-14.6,21.3-16.8
	c3-0.7,2.1-4.9-0.7-5.2c-9.8-0.8-21.2,4.9-27.4,13.4c-0.2-20.5-2.7-41.1-5.5-61.5c-0.4-3.2-5.8-2.4-5.6,0.8
	c1.6,32.3,3.9,65-2.8,96.8c-1.4,2.3-1.5,4.3-0.9,7c1.3,5.3,10,5.7,11.1,0c1.6-8.1,2.6-16.3,3.1-24.5c2.6,1.6,6.1,2.3,9.4,2.7
	c8.9,1.2,19.9,2.8,28.3-1.1c0.1,0,0.1-0.1,0.2-0.1c-0.2,2.2-0.3,4.4-0.2,6.5c0.3,5.5,1.6,11.7,7.7,13.3c4.1,1.1,10.2-0.1,12.3-4.1
	c0.4-0.8,0.3-2.2-0.7-2.6c-2.5-1.1-4.5-0.1-7-0.7c-3.2-0.8-2.3-4.9-2.2-7.6c0.1-2.3,0.3-4.6,0.8-6.9c7.7-2.2,14.5-6.9,18.7-14.1
	C542.2,90.8,542.8,83.7,538.1,79z M527.1,97.5c-1.3,1.6-2.8,2.9-4.5,4.1c1-3,2.1-6,3.2-8.9c0.6-1.5,4-10,5.8-5.3
	C532.8,90.5,528.8,95.6,527.1,97.5z"/>
<path d="M640.9,51c-6.7,12-6.1,26-8.7,39.2c-2.8,14.8-10.8,25.6-23.1,34c-9.1,6.2-18.9,10.9-29,15.1c1.2-2.6,2.5-5.2,3.7-7.9
	c6.6-14.7,15.4-31.7,11.1-48.2c-0.8-3.2-5.3-4.6-7.7-2c-8,8.8-15.7,18.5-24.4,26.6c-2.9,2.7-8.6,6.2-9.9,0.3
	c-0.8-3.9,0.4-8.2,1.7-11.9c1.3-4-5.2-6.8-6.9-2.9c-3.8,9-6.2,26.3,8.2,26.9c7.7,0.3,13.3-6.1,18-11.3l12.7-13.8
	c-1,10.9-7,21.9-11.4,31.2c-2.9,6.2-5.9,12.3-9.1,18.4c-12,4.6-24,9.2-35.3,15.3c-10.7,5.8-21,13.2-27.5,23.7
	c-5.1,8.1-10.3,23.1-0.8,30.2c9.7,7.3,23.1,0.4,31.2-5.9c10.8-8.3,18.4-20.1,25.6-31.4c5.8-9.3,11.3-18.8,16.3-28.6
	c15.1-5.7,29.9-12.1,42.8-21.9c10.2-7.8,17.9-18,20.6-30.8c2.9-14.2,1.8-28.9,4.9-43.2C644.3,50.5,641.9,49.3,640.9,51z
	 M556.5,162.1c-6.4,10.9-13.1,22.2-21.8,31.6c-3.8,4-7.9,7.7-12.7,10.5c-3.8,2.2-11.8,6-16.1,2.8c-4.8-3.7-1.2-13.8,0.9-18
	c2.6-5.1,6.6-9.5,10.9-13.2c9.9-8.5,22.3-14,34.3-18.7c3.2-1.3,6.4-2.5,9.6-3.7C559.9,156.3,558.2,159.2,556.5,162.1z"/>
<path d="M55.5,3.4C48.2,0.8,39.8-1.3,32-0.2c-5.8,0.8-13.9,4.1-15.3,10.5c-0.5,2.2,1.2,4.4,3.2,4.7c-0.4,16.7-1.5,33.5-3.2,50.1
	c-1.6-0.5-3.1-1-4.7-1.5c-4.9-1.4-14-0.6-12,7c1,3.6,5.5,4.7,7.6,2.2c1.7,0.9,5.2,2.3,7.8,3.3c-0.3,2.3-0.5,4.6-0.8,6.8
	c-1.5,11.3-3.2,22.7-5.4,33.9c-2,10.1-4.8,20.1-6.9,30.2c-0.4,1.5-0.6,3.1-0.9,4.7c-1.5,8.2,10.2,11.7,12.7,3.5
	c3.4-11.3,4.9-23.6,6.7-35.2c1.8-11.7,3.4-23.4,4.4-35.2c0.2-1.9,0.3-3.7,0.5-5.6c1.8,0.4,3.6,0.6,5.4,0.8c7.7,0.6,15.4-1.6,21.8-6
	c11.9-8.3,21.7-23.9,24.3-38.1C80.3,19.6,70.1,8.5,55.5,3.4z M54.6,58.3c-4.5,5.2-10,9.7-17,10.7c-3.8,0.6-7.4,0.1-11-0.8
	c1-18.3,0.9-36.6,0-54.9c0-0.8-0.3-1.4-0.6-1.8c1.3-1,2.7-1.9,4.4-2.4c4-1.1,8.4-0.5,12.4,0.4c6.6,1.5,14,3.5,19.3,7.9
	C75.3,28.1,63.1,48.4,54.6,58.3z"/>
</svg>
