<?xml version="1.0" encoding="utf-8"?>
<!-- Generator: Adobe Illustrator 21.0.0, SVG Export Plug-In . SVG Version: 6.00 Build 0)  -->
<svg version="1.1" id="Layer_1" xmlns="http://www.w3.org/2000/svg" xmlns:xlink="http://www.w3.org/1999/xlink" x="0px" y="0px"
	 viewBox="0 0 1036 545" style="enable-background:new 0 0 1036 545;" xml:space="preserve">
<path d="M357.6,183.1c-3.5-4.3-9.2-0.4-9.3,4.1c-0.1,0-0.2-0.1-0.3-0.1c0.4,4.5,2.3,8.5,2.7,13c0.4,3.9,0.2,7.9-0.7,11.8
	c-1.9,7.9-6.4,14.9-12.7,19.9c-2.6,2.1-7.4,5.8-11,5.1c-3.2-0.6-5.9-4.2-7.5-6.8c-3.9-6.4-5-14.1-6.2-21.4
	c-1.1-6.7-12.4-5.2-11.9,1.6c0.6,7.5-1.1,14.9-5.5,21.1c-2,2.9-4.3,6.1-8.1,5.7c-3.3-0.3-6.6-2.5-8.9-4.8
	c-5.3-5.1-7.8-12.2-8.5-19.3c-0.4-4.2-0.2-8.5,0-12.7c0.2-4.2,1.2-8.1-0.9-11.9c0,0-0.1,0-0.1,0.1c-1.2-1.9-3.8-2.9-5.7-0.8
	c-3.6,3.9-3.6,10.2-4,15.4c-0.5,6.2-0.2,12.5,1.1,18.6c2.1,9.4,7.7,18.5,16.1,23.5c9.4,5.6,19.2,4.3,26.2-4c1.9-2.2,3.5-4.6,4.9-7.1
	c1.3,2.4,2.8,4.6,4.6,6.7c3.2,3.7,7.7,6.9,12.6,7.7c5.9,0.9,11.8-2.1,16.6-5.2c9-5.9,15.9-14.7,19.3-24.9
	C364.1,207.8,364.9,192.1,357.6,183.1z"/>
<path d="M247.2,331c-0.9-7.8-2.1-15.6-4.1-23.3c-2-7.5-4.7-14.8-8.3-21.7c-3.4-6.4-7.7-13.7-14.7-16.5c-17-6.9-23.6,16.3-28.3,27.9
	c-2.9,7.1-5.2,14.2-7.2,21.4c-0.2,0.1-0.5,0.2-0.7,0.4l0.1,0.1c-1.3,0.8-1.6,2.7-0.4,3.7c-1.8,7.5-3.2,15.1-4.1,22.9
	c-0.4,3.3,4.8,3.8,5.6,0.8c2.1-7.6,4.6-15.1,7.2-22.6c2.1-0.1,4.2-0.3,6.2-0.4c4.8-0.2,9.6-0.5,14.4-0.5c4.8-0.1,9.6,0,14.4,0.1
	c2.2,0.1,4.7,0.5,7,0.3c1.4,10.9,1.3,21.9,3,32.8c1.1,6.9,11.1,4.7,11.5-1.6C249.3,347,248.1,338.7,247.2,331z M227.3,313.8
	c-5.1,0.1-10.3,0.4-15.4,0.8c-4.8,0.4-9.7,0.8-14.5,1.5c-0.7,0.1-1.5,0.2-2.3,0.3c1.1-2.9,2.2-5.8,3.4-8.7
	c2.5-6.2,5.4-12.3,8.5-18.3c1.2-2.4,2.9-7.4,5.1-9c2.6-1.8,5.4,0.5,7.2,2.5c7.1,8.3,10.8,20.1,13.2,30.9
	C230.9,313.7,229.2,313.7,227.3,313.8z"/>
<path d="M345.5,326.7c-6.3-4.8-14.1-6.7-21.3-9.7c-4.4-1.8-8.6-3.9-12.7-6.3c-3.3-1.9-9-4.3-10.9-7.9c-1.5-2.8-0.9-7.5-0.8-10.6
	c0.1-3.8,0.5-7.8,1.9-11.3c3.1-7.9,10.8-10.1,18.6-10.2c4-0.1,8.2-0.1,12.1,0.4c2.5,0.3,12,4.3,6.6,8c-1.1,0.7-0.4,2.7,0.9,2.2
	c4.2-1.4,6.5-5.7,5.7-10c-1.3-6.9-9.1-9.1-15-10.1c-13.6-2.4-29.3-2.2-37.4,10.9c-3.7,6-4.8,13.3-5,20.2c-0.2,7.4,0,15.2,5.8,20.6
	c5.9,5.4,13.7,9.3,20.9,12.6c6.5,3,13.7,4.8,20,8.1c1.6,0.8,3.2,1.8,4.6,3c0.7,0.6,1.2,1.3,1.8,2c0.2,0.3,0.4,0.4,0.5,0.5
	c0,0-0.1,0-0.1,0c-2.4,2.9-8.5,4.4-12,5.6c-9.6,3.4-19.1,4.5-29,6c-7.4,1.1-5.3,12.5,1.7,12.7c9.3,0.3,19.4-2.4,28.1-5.6
	c7.1-2.6,17.6-6.1,21.5-13.2C356,337.8,350.9,330.8,345.5,326.7z"/>
<path d="M464.2,277.1c-4.1-6.2-9.8-11.4-15.7-15.9c-8.2-6.1-25.9-16.9-34.4-5.7c0,0,0,0,0,0.1c-1.5-0.9-3.9-0.3-4.3,1.6
	c-1.3,6.4-1.3,13.2-1.9,19.7c-0.7,7-1.1,13.9-1.5,20.9c-0.7,13.9-1.8,27.9-1.8,41.8c0,2.8,1.4,4.6,3.2,5.5c-0.1,0.7-0.1,1.4,0.1,2.1
	c2.4,8.4,12.1,8.9,19.1,6.8c7.5-2.3,14-7.9,19.3-13.5c10.4-10.9,18-24.7,21-39.5C468.9,292.6,469.1,284.5,464.2,277.1z M453.6,302.8
	c-3.3,9.9-9,19.1-16.4,26.4c-3.5,3.5-7.4,6.8-11.9,9.1c-2.7,1.4-5.3,1.8-7.9,1.9c0-0.5,0-1-0.1-1.5c0.4-13.6-0.1-27.4-0.3-41
	c-0.1-6.6-0.2-13.3-0.6-19.9c-0.3-6.1-0.3-12.5-1-18.6c0.9,0.4,2,0.3,2.7-0.6c3.7-4.4,10.6,0.3,14.2,2.5c5,3.1,9.6,6.8,13.7,10.9
	c3.7,3.8,8.3,8.5,9.8,13.8C457.4,291.4,455.3,297.7,453.6,302.8z"/>
<path d="M737,184.6c-7.6-2.7-17.5-2.4-25.5-3c-8.7-0.6-17.4-0.9-26.2-0.9c-1.9,0-3.4,1.3-4,3c-0.1,0.3-0.2,0.6-0.2,0.9
	c-3-2.8-9-1.6-9,3.7c0,14.8-0.2,29.6-0.6,44.3c-0.2,7.2-0.5,14.5-0.8,21.7c-0.4,7.5-1.4,15.2-1.1,22.6c0.4,11,15.9,6.8,14.1-1.1
	c1.4-12.5,0.9-25.6,0.8-38.2c7.7,0.5,15.4,0.8,23.1,0.6c7-0.2,19.8,1.3,25.1-4.2c1.6-1.7,1.4-4.6-0.7-5.7c-3.6-2-7.1-1.2-11-0.6
	c-4.5,0.7-9,1.6-13.5,2.3c-7.7,1.2-15.4,2.2-23.1,3.1c-0.1-15-0.6-30-1.6-44.9c0-0.1,0-0.1,0-0.2c0.7,0.5,1.6,0.8,2.5,0.9
	c8.4,0.8,16.8,1.6,25.2,2.6c8,1,17,3.7,25.1,3.3C741.6,194.5,742.6,186.5,737,184.6z"/>
<path d="M816.2,300.4c-1.1-2-2.8-4.6-4.9-7.4c0.2-1.2,0.4-2.5,0.6-3.7c2.8-22.7-10.9-47.9-35.1-51c-26-3.3-45.8,17.7-56.5,38.9
	c-5.9,11.6-11,24-14.2,36.6c-2.8,10.9-5.5,25,3.2,34.1c1.1,1.2,2.3,2.1,3.6,3c-1.5,9.9-1.4,20.3,2.3,29.6c5,12.3,16,18.9,28.5,21.8
	c14.2,3.2,30.2,4.3,44.1-0.9c23.2-8.7,38.3-32.1,39.8-56.4C828.6,329.5,823.9,313.7,816.2,300.4z M800.6,282
	c-5.8-4.2-12.1-5.6-17.4,0.3c-0.1,0.1-0.2,0.2-0.3,0.3c-0.8,0-1.6,0.3-2.4,0.9c-0.7,0.5-1.3,1-2,1.5c1.6-2.2,2.9-4.5,4-6.9
	c1.3-3-0.2-6.6-2.9-7.5c0.7-0.7,1.4-1.4,2.1-2.1c4.1-4-1.1-10.7-6.1-7.9c-1.9,1.1-3.8,2.3-5.7,3.5c0.1-1.6-0.7-3.3-1.8-4.4
	c1.1-1.9,1.9-3.9,2.1-6.2c0.1-1-0.3-1.8-0.8-2.5c0.1-0.2,0.1-0.5,0.1-0.7c0.3,0,0.6,0,0.9-0.1C788.3,249.6,799.7,265.7,800.6,282z
	 M726.6,291.8c0.2,0,0.4,0,0.5-0.1c-0.3,0.4-0.7,0.8-1,1.2C726.3,292.6,726.4,292.2,726.6,291.8z M726.4,335.7
	c1.5,0.9,3.4,1,5.2-0.4c0.4-0.3,0.8-0.6,1.1-0.9l0,0c0,0,0,0,0,0c0.3-0.2,0.6-0.5,1-0.8c-0.9,3.5,1.1,8,5.3,7.5
	c2.4-0.3,4.6-0.9,6.6-1.8c0,0.2,0,0.4-0.1,0.6c-6.7,3-14.4,5.2-21.3,3.5C724.9,340.9,725.6,338.3,726.4,335.7z M782.9,321.4
	c1.7-2,3.5-4.1,5.3-6.1c2.9-3.2,0.8-8.3-2.6-9.3c0.7-3.8-2.3-8-6.2-6.9c1.5-1.6,2.9-3.2,4.4-4.7c1.6,0.3,3.3,0.7,4.8,1.2
	c2,0.6,3.7-2.2,2.1-3.6c-1-0.9-2-1.7-3-2.4c0-0.1,0-0.1,0.1-0.2c4.6,0.2,7.5,3.8,10.3,7.3c0.2,0.3,0.4,0.5,0.6,0.8
	c-3,10-8.9,18.9-15.9,27C783.2,323.5,783.2,322.4,782.9,321.4z M717.3,317.9C717.3,317.9,717.3,317.8,717.3,317.9
	c1.2,0,2.4-0.5,3.3-1.6c1.4-1.6,2.8-3.3,4.2-4.9c0.2,0.1,0.5,0.1,0.7,0.2c-0.7,0.8-1.4,1.5-2.2,2.3c-1.7,1.9-1.9,4-1.2,5.9
	c-2.6,5.4-4.6,11.1-6.1,16.9C713.8,331.1,715.9,323.2,717.3,317.9z M789,389.5c-10.6,5.8-23.2,6.4-35,4.7
	c-10.6-1.5-22.6-4.3-28.3-14.3c-4.2-7.5-4.5-16.8-3.5-25.3c8.9,1.5,18.9-1.2,26.9-4.5c6-2.5,11.7-5.6,17-9.3c-0.6,0.5-1.1,1-1.7,1.5
	c-2.5,2.2,0.7,6.1,3.5,4.5c15.6-9.4,30.1-21.8,38.1-38c0.3,0.6,0.7,1.1,1,1.7c5.1,9.6,8.1,20.3,8.3,31.2
	C815.6,360.9,806.2,380.1,789,389.5z"/>
<path d="M789.6,354.2c-1-1.9-3.9-2.3-5.3-0.7c-4.7,5.2-1.1,12-2.4,18c-4.1-5.3-6.9-11.6-8.5-18.1c-0.3-1.3-1.8-2.6-3.2-2.4
	c-0.2,0-0.4,0-0.6,0.1c-0.1,0-0.2,0-0.2,0c-1.3,0.2-2.5,1.9-2.4,3.2c0.6,8.5,3.1,16.2,7.8,23.2c-1.8,0.2-3.7,0.1-5.3,0.2
	c-4.5,0.3-9.1,0.5-13.6,0.7c-2.5,0.1-2.5,3.7,0,3.8c6.5,0.3,13,0.8,19.5,1.2c4.1,0.3,8.1,0.1,11.4-2.7c3.1-2.6,4.4-6.7,4.7-10.7
	C791.8,365.2,791.9,358.6,789.6,354.2z"/>
</svg>
